<svg xmlns="http://www.w3.org/2000/svg" viewBox="0 0 100 100" role="img" aria-label="Birthday cake"><style>.cake-w *{fill:#fff;stroke:#fff;stroke-width:13px}.cake-w [fill=none]{fill:none}</style><g fill="none" stroke="#1c2433" stroke-width="5" stroke-linecap="round" stroke-linejoin="round"><g class="cake-w"><path d="M8 88h84" stroke-width="5"/><rect x="14" y="48" width="72" height="40" rx="4" fill="#F4CD72"/><path d="M14 68h72" stroke="#e05a47" stroke-width="4"/><path d="M14 56q0-10 10-10h52q10 0 10 10-6 6-12 0-6 8-12 0-6 8-12 0-6 8-12 0-6 8-12 0-6 6-12 0z" fill="#f4a6b8" stroke-width="4"/><rect x="46" y="24" width="8" height="22" fill="#3b6fd6" stroke-width="3.5"/><path d="M50 6q7 8 0 14-7-6 0-14z" fill="#F4CD72" stroke-width="3"/></g><path d="M8 88h84" stroke-width="5"/><rect x="14" y="48" width="72" height="40" rx="4" fill="#F4CD72"/><path d="M14 68h72" stroke="#e05a47" stroke-width="4"/><path d="M14 56q0-10 10-10h52q10 0 10 10-6 6-12 0-6 8-12 0-6 8-12 0-6 8-12 0-6 8-12 0-6 6-12 0z" fill="#f4a6b8" stroke-width="4"/><rect x="46" y="24" width="8" height="22" fill="#3b6fd6" stroke-width="3.5"/><path d="M50 6q7 8 0 14-7-6 0-14z" fill="#F4CD72" stroke-width="3"/></g></svg>