<svg xmlns="http://www.w3.org/2000/svg" viewBox="0 0 100 100" role="img" aria-label="Carrot"><style>.carrot-w *{fill:#fff;stroke:#fff;stroke-width:13px}.carrot-w [fill=none]{fill:none}</style><g fill="none" stroke="#1c2433" stroke-width="5" stroke-linecap="round" stroke-linejoin="round"><g class="carrot-w"><path d="M70 30q-4-18 4-22 4 12 6 18 4-16 12-14-2 12-10 20 12-2 12 6-8 2-18-2z" fill="#5fae5f" stroke-width="4"/><path d="M20 86l42-56q14-8 20 4 4 10-6 18z" fill="#f08a3c"/><path d="M40 64l8 4M52 48l8 4M34 76l6 3" stroke-width="3"/></g><path d="M70 30q-4-18 4-22 4 12 6 18 4-16 12-14-2 12-10 20 12-2 12 6-8 2-18-2z" fill="#5fae5f" stroke-width="4"/><path d="M20 86l42-56q14-8 20 4 4 10-6 18z" fill="#f08a3c"/><path d="M40 64l8 4M52 48l8 4M34 76l6 3" stroke-width="3"/></g></svg>