<svg xmlns="http://www.w3.org/2000/svg" viewBox="0 0 100 100" role="img" aria-label="Robber eye mask"><style>.mask-w *{fill:#fff;stroke:#fff;stroke-width:13px}.mask-w [fill=none]{fill:none}</style><g fill="none" stroke="#1c2433" stroke-width="5" stroke-linecap="round" stroke-linejoin="round"><g class="mask-w"><path d="M10 46l-6-8M10 50l-6 8" stroke-width="4"/><path d="M10 42q20-12 40-2 20-10 40 2 2 18-14 22-16 2-26-8-10 10-26 8-16-4-14-22z" fill="#1c2433"/><ellipse cx="31" cy="50" rx="9" ry="6" fill="#fff" stroke="none"/><ellipse cx="69" cy="50" rx="9" ry="6" fill="#fff" stroke="none"/></g><path d="M10 46l-6-8M10 50l-6 8" stroke-width="4"/><path d="M10 42q20-12 40-2 20-10 40 2 2 18-14 22-16 2-26-8-10 10-26 8-16-4-14-22z" fill="#1c2433"/><ellipse cx="31" cy="50" rx="9" ry="6" fill="#fff" stroke="none"/><ellipse cx="69" cy="50" rx="9" ry="6" fill="#fff" stroke="none"/></g></svg>