<svg xmlns="http://www.w3.org/2000/svg" viewBox="0 0 100 100" role="img" aria-label="Pool noodle"><style>.pool-noodle-w *{fill:#fff;stroke:#fff;stroke-width:13px}.pool-noodle-w [fill=none]{fill:none}</style><g fill="none" stroke="#1c2433" stroke-width="5" stroke-linecap="round" stroke-linejoin="round"><g class="pool-noodle-w"><path d="M12 86Q4 38 50 14q34-14 46 12l-12 12q-8-14-30-4Q22 46 32 86a10 10 0 0 1-20 0z" fill="#5fae5f"/><path d="M84 38l12-12" stroke-width="4"/><circle cx="90" cy="32" r="3" fill="#3f7f3f" stroke="none"/><path d="M20 70q-3-14 2-26" fill="none" stroke="#fff" stroke-width="3.5"/></g><path d="M12 86Q4 38 50 14q34-14 46 12l-12 12q-8-14-30-4Q22 46 32 86a10 10 0 0 1-20 0z" fill="#5fae5f"/><path d="M84 38l12-12" stroke-width="4"/><circle cx="90" cy="32" r="3" fill="#3f7f3f" stroke="none"/><path d="M20 70q-3-14 2-26" fill="none" stroke="#fff" stroke-width="3.5"/></g></svg>