<svg xmlns="http://www.w3.org/2000/svg" viewBox="0 0 100 100" role="img" aria-label="Skateboard"><style>.skateboard-w *{fill:#fff;stroke:#fff;stroke-width:13px}.skateboard-w [fill=none]{fill:none}</style><g fill="none" stroke="#1c2433" stroke-width="5" stroke-linecap="round" stroke-linejoin="round"><g class="skateboard-w"><g transform="rotate(-14 50 55)"><path d="M26 56v6M74 56v6" stroke-width="4"/><path d="M6 50q0-8 9-8h70q9 0 9 8 0 6-9 6H15q-9 0-9-6z" fill="#087F98"/><circle cx="26" cy="66" r="7" fill="#F4CD72" stroke-width="4"/><circle cx="74" cy="66" r="7" fill="#F4CD72" stroke-width="4"/></g></g><g transform="rotate(-14 50 55)"><path d="M26 56v6M74 56v6" stroke-width="4"/><path d="M6 50q0-8 9-8h70q9 0 9 8 0 6-9 6H15q-9 0-9-6z" fill="#087F98"/><circle cx="26" cy="66" r="7" fill="#F4CD72" stroke-width="4"/><circle cx="74" cy="66" r="7" fill="#F4CD72" stroke-width="4"/></g></g></svg>