<svg xmlns="http://www.w3.org/2000/svg" viewBox="0 0 100 100" role="img" aria-label="Tennis racket and ball"><style>.tennis-racket-w *{fill:#fff;stroke:#fff;stroke-width:13px}.tennis-racket-w [fill=none]{fill:none}</style><g fill="none" stroke="#1c2433" stroke-width="5" stroke-linecap="round" stroke-linejoin="round"><g class="tennis-racket-w"><g transform="rotate(-35 44 44)"><path d="M44 72v22" stroke-width="12"/><path d="M44 72v22" stroke="#e05a47" stroke-width="4"/><ellipse cx="44" cy="40" rx="24" ry="30" fill="#CBE8EB"/><path d="M32 18v44M44 10v60M56 18v44M22 28h44M20 40h48M22 52h44" stroke-width="2"/></g><circle cx="80" cy="76" r="10" fill="#d4e157" stroke-width="4"/></g><g transform="rotate(-35 44 44)"><path d="M44 72v22" stroke-width="12"/><path d="M44 72v22" stroke="#e05a47" stroke-width="4"/><ellipse cx="44" cy="40" rx="24" ry="30" fill="#CBE8EB"/><path d="M32 18v44M44 10v60M56 18v44M22 28h44M20 40h48M22 52h44" stroke-width="2"/></g><circle cx="80" cy="76" r="10" fill="#d4e157" stroke-width="4"/></g></svg>