<svg xmlns="http://www.w3.org/2000/svg" viewBox="0 0 100 100" role="img" aria-label="Water bottle"><style>.water-bottle-w *{fill:#fff;stroke:#fff;stroke-width:13px}.water-bottle-w [fill=none]{fill:none}</style><g fill="none" stroke="#1c2433" stroke-width="5" stroke-linecap="round" stroke-linejoin="round"><g class="water-bottle-w"><rect x="40" y="6" width="20" height="12" rx="2" fill="#3b6fd6"/><path d="M40 18h20v6q12 6 12 18v42q0 8-8 8H36q-8 0-8-8V42q0-12 12-18z" fill="#CBE8EB"/><rect x="28" y="50" width="44" height="20" fill="#3b6fd6" stroke-width="3.5"/><path d="M36 60q7-5 14 0t14 0" stroke="#fff" stroke-width="3"/></g><rect x="40" y="6" width="20" height="12" rx="2" fill="#3b6fd6"/><path d="M40 18h20v6q12 6 12 18v42q0 8-8 8H36q-8 0-8-8V42q0-12 12-18z" fill="#CBE8EB"/><rect x="28" y="50" width="44" height="20" fill="#3b6fd6" stroke-width="3.5"/><path d="M36 60q7-5 14 0t14 0" stroke="#fff" stroke-width="3"/></g></svg>