<svg xmlns="http://www.w3.org/2000/svg" viewBox="0 0 100 100" role="img" aria-label="Ocean wave"><style>.wave-w *{fill:#fff;stroke:#fff;stroke-width:13px}.wave-w [fill=none]{fill:none}</style><g fill="none" stroke="#1c2433" stroke-width="5" stroke-linecap="round" stroke-linejoin="round"><g class="wave-w"><path d="M8 86C10 50 36 20 66 24c18 2 26 16 20 28-6-8-18-10-24-2s2 18 14 18c-10 10-26 6-32-4v22z" fill="#087F98"/><path d="M8 86h84" stroke-width="5"/><path d="M36 54q6-16 20-20" stroke="#CBE8EB" stroke-width="4"/></g><path d="M8 86C10 50 36 20 66 24c18 2 26 16 20 28-6-8-18-10-24-2s2 18 14 18c-10 10-26 6-32-4v22z" fill="#087F98"/><path d="M8 86h84" stroke-width="5"/><path d="M36 54q6-16 20-20" stroke="#CBE8EB" stroke-width="4"/></g></svg>