<svg xmlns="http://www.w3.org/2000/svg" viewBox="0 0 140 140" role="img" aria-label="Chip mascot in sunglasses with a suitcase and a passport"><defs><filter id="grain-theme-vacation" filterUnits="userSpaceOnUse" x="0" y="0" width="140" height="140"><feTurbulence type="fractalNoise" baseFrequency="1.1" numOctaves="2" seed="31" result="n"/><feColorMatrix in="n" values="0 0 0 0 .11 0 0 0 0 .14 0 0 0 0 .2 0 0 0 -1 .42" result="g"/><feComposite in="g" in2="SourceAlpha" operator="in" result="m"/><feBlend in="m" in2="SourceGraphic" mode="multiply"/></filter></defs><g filter="url(#grain-theme-vacation)"><g class="mascot" stroke-linecap="round" stroke-linejoin="round"><g class="sticker"><circle cx="70" cy="66" r="31" fill="#fff" stroke="#fff" stroke-width="14.5"/><path d="M62 95L60 111" fill="none" stroke="#fff" stroke-width="14.5"/><rect x="50" y="109" width="14" height="8" rx="4" fill="#fff" stroke="#fff" stroke-width="13.5"/><path d="M78 95L80 111" fill="none" stroke="#fff" stroke-width="14.5"/><rect x="76" y="109" width="14" height="8" rx="4" fill="#fff" stroke="#fff" stroke-width="13.5"/><path d="M41 74L25 79" fill="none" stroke="#fff" stroke-width="14.5"/><circle cx="24" cy="80" r="5" fill="#fff" stroke="#fff" stroke-width="13.5"/><rect x="6" y="86" width="36" height="30" rx="6" fill="#fff" stroke="#fff" stroke-width="13.5"/><path d="M17 86v-7h14v7" fill="none" stroke="#fff" stroke-width="14"/><path d="M98 58L110 46" fill="none" stroke="#fff" stroke-width="14.5"/><circle cx="110" cy="46" r="5" fill="#fff" stroke="#fff" stroke-width="13.5"/><rect x="-10" y="-13" width="20" height="26" rx="3" fill="#fff" stroke="#fff" stroke-width="13.5" transform="translate(114 32) rotate(14)"/><circle cx="22" cy="24" r="14" fill="#fff" stroke="#fff" stroke-width="13"/></g><path d="M62 95L60 111" fill="none" stroke="#1c2433" stroke-width="4.5"/><rect x="50" y="109" width="14" height="8" rx="4" fill="#e05a47" stroke="#1c2433" stroke-width="3.5"/><path d="M53 114.2h8" fill="none" stroke="#fff" stroke-width="1.6"/><path d="M78 95L80 111" fill="none" stroke="#1c2433" stroke-width="4.5"/><rect x="76" y="109" width="14" height="8" rx="4" fill="#e05a47" stroke="#1c2433" stroke-width="3.5"/><path d="M79 114.2h8" fill="none" stroke="#fff" stroke-width="1.6"/><circle cx="70" cy="66" r="31" fill="#087F98" stroke="#1c2433" stroke-width="4.5"/><circle cx="70" cy="66" r="25.4" fill="none" stroke="#F8F7F3" stroke-width="5" stroke-dasharray="9 11" transform="rotate(-11 70 66)"/><circle cx="70" cy="66" r="20" fill="#F8F7F3" stroke="#1c2433" stroke-width="3"/><circle cx="22" cy="24" r="9" fill="#f2e8d6" stroke="#1c2433" stroke-width="3"/><path d="M22 8v4M22 36v4M6 24h4M34 24h4M11 13l3 3M30 32l3 3M33 13l-3 3M14 32l-3 3" stroke="#1c2433" stroke-width="2.4"/><path d="M61 74q9 8 18 0" fill="none" stroke="#1c2433" stroke-width="3"/><g class="eyes"><path d="M50 58h40" stroke="#1c2433" stroke-width="3"/><path d="M52 57h14v5a6 6 0 0 1-6 6h-2a6 6 0 0 1-6-6zM74 57h14v5a6 6 0 0 1-6 6h-2a6 6 0 0 1-6-6z" fill="#1c2433" stroke="#1c2433" stroke-width="2.4"/><path d="M55 60l3-2M77 60l3-2" stroke="#fff" stroke-width="1.8"/></g><g class="prop"><rect x="6" y="86" width="36" height="30" rx="6" fill="#fff" stroke="#fff" stroke-width="8.5"/><path d="M17 86v-7h14v7" fill="none" stroke="#fff" stroke-width="9"/><rect x="-10" y="-13" width="20" height="26" rx="3" fill="#fff" stroke="#fff" stroke-width="8.5" transform="translate(114 32) rotate(14)"/><path d="M41 74L25 79" fill="none" stroke="#1c2433" stroke-width="4.5"/><path d="M17 86v-7h14v7" fill="none" stroke="#1c2433" stroke-width="4"/><rect x="6" y="86" width="36" height="30" rx="6" fill="#e05a47" stroke="#1c2433" stroke-width="3.5"/><path d="M16 86v30M32 86v30" stroke="#F8F7F3" stroke-width="3"/><circle cx="24" cy="101" r="5" fill="#F8F7F3" stroke="#1c2433" stroke-width="2.2"/><path d="M21.5 101h5M24 98.5v5" stroke="#3b6fd6" stroke-width="1.8"/><circle cx="24" cy="80" r="5" fill="#F8F7F3" stroke="#1c2433" stroke-width="3.5"/><path d="M98 58L110 46" fill="none" stroke="#1c2433" stroke-width="4.5"/><g transform="translate(114 32) rotate(14)"><rect x="-10" y="-13" width="20" height="26" rx="3" fill="#3b6fd6" stroke="#1c2433" stroke-width="3.5"/><circle cx="0" cy="-2" r="5.5" fill="none" stroke="#F8F7F3" stroke-width="2"/><path d="M-5.5 -2h11M0 -7.5q-3.5 5.5 0 11q3.5-5.5 0-11" fill="none" stroke="#F8F7F3" stroke-width="1.6"/><path d="M-5 8h10" stroke="#F8F7F3" stroke-width="2"/></g><circle cx="110" cy="46" r="5" fill="#F8F7F3" stroke="#1c2433" stroke-width="3.5"/></g></g></g></svg>